<svg width="29" height="27" viewBox="0 0 29 27" fill="none" xmlns="http://www.w3.org/2000/svg">
<path d="M13.6226 24.0748L13.6209 24.0733C9.97436 20.7666 7.04026 18.0997 5.00436 15.609C2.9811 13.1336 1.96543 10.9731 1.96543 8.69825C1.96543 4.98598 4.85502 2.10772 8.55596 2.10772C10.6571 2.10772 12.6928 3.09181 14.0165 4.63402L14.8891 5.65079L15.7618 4.63402C17.0854 3.09181 19.1211 2.10772 21.2223 2.10772C24.9232 2.10772 27.8128 4.98598 27.8128 8.69825C27.8128 10.9731 26.7972 13.1336 24.7739 15.609C22.738 18.0997 19.8039 20.7666 16.1573 24.0733L16.1557 24.0748L14.8891 25.2278L13.6226 24.0748Z" stroke="white" stroke-width="2.3"/>
</svg>
