<svg width="44" height="44" viewBox="0 0 44 44" fill="none" xmlns="http://www.w3.org/2000/svg">
<path d="M40.8571 25.1429H25.1429V40.8571C25.1429 41.6907 24.8117 42.4901 24.2223 43.0795C23.6329 43.6689 22.8335 44 22 44C21.1665 44 20.3671 43.6689 19.7777 43.0795C19.1883 42.4901 18.8571 41.6907 18.8571 40.8571V25.1429H3.14286C2.30932 25.1429 1.50992 24.8117 0.920522 24.2223C0.331122 23.6329 0 22.8335 0 22C0 21.1665 0.331122 20.3671 0.920522 19.7777C1.50992 19.1883 2.30932 18.8571 3.14286 18.8571H18.8571V3.14286C18.8571 2.30932 19.1883 1.50992 19.7777 0.920521C20.3671 0.331121 21.1665 0 22 0C22.8335 0 23.6329 0.331121 24.2223 0.920521C24.8117 1.50992 25.1429 2.30932 25.1429 3.14286V18.8571H40.8571C41.6907 18.8571 42.4901 19.1883 43.0795 19.7777C43.6689 20.3671 44 21.1665 44 22C44 22.8335 43.6689 23.6329 43.0795 24.2223C42.4901 24.8117 41.6907 25.1429 40.8571 25.1429Z" fill="white"/>
</svg>
