<svg width="34" height="32" viewBox="0 0 34 32" fill="none" xmlns="http://www.w3.org/2000/svg">
<path d="M10.6667 26.64C8.03683 28.8788 5.63175 30.25 1.16675 30.25C2.75008 28.6667 4.76091 26.5292 5.60167 23.2089C2.85616 20.9305 1.16675 17.8319 1.16675 14.4167C1.16675 7.4215 8.25533 1.75 17.0001 1.75C25.0751 1.75 31.7377 6.5855 32.7115 12.8333" stroke="#6D6D6D" stroke-width="2" stroke-linecap="round" stroke-linejoin="round"/>
<path d="M23.3335 28.4909C18.0863 28.4909 13.8335 25.3401 13.8335 21.453C13.8335 17.5675 18.0863 14.4167 23.3335 14.4167C28.5807 14.4167 32.8335 17.5675 32.8335 21.453C32.8335 23.3514 31.8202 25.0725 30.1735 26.3376C30.6754 28.1822 31.8835 29.3697 32.8335 30.25C29.9835 30.25 28.5332 29.3887 26.8295 27.9985C25.7465 28.3152 24.5685 28.4909 23.3335 28.4909Z" stroke="#6D6D6D" stroke-width="2" stroke-linecap="round" stroke-linejoin="round"/>
</svg>
