<svg width="33" height="36" viewBox="0 0 33 36" fill="none" xmlns="http://www.w3.org/2000/svg">
<path d="M11.4386 0C5.0999 0.0439447 -0.0134391 5.66416 2.65345e-05 12.5563L2.82563e-05 30.8344C2.81417e-05 33.6873 2.12705 36 4.75085 36C7.37466 36 9.50168 33.6873 9.50168 30.8344V14.3841C9.50168 12.2997 11.0646 10.3709 13.1927 10.3709H28.2309C30.8648 10.3709 33 8.04926 33 5.18543C33 2.3216 30.8648 0 28.2309 0H11.4386Z" fill="url(#paint0_linear_11_236)"/>
<path d="M13.1196 15.5762C13.1196 14.8739 13.6432 14.3046 14.2891 14.3046H27.5183C30.5457 14.3046 33 16.9731 33 20.2649C33 23.5567 30.5457 26.2252 27.5183 26.2252H24.0831V30.0397C24.0831 33.3315 21.6288 36 18.6013 36C15.5739 36 13.1196 33.3315 13.1196 30.0397L13.1196 15.5762Z" fill="url(#paint1_linear_11_236)"/>
<defs>
<linearGradient id="paint0_linear_11_236" x1="0" y1="0" x2="35.8017" y2="33.0001" gradientUnits="userSpaceOnUse">
<stop stop-color="#1F92FD"/>
<stop offset="0.82408" stop-color="#FB535A"/>
</linearGradient>
<linearGradient id="paint1_linear_11_236" x1="0" y1="0" x2="35.8017" y2="33.0001" gradientUnits="userSpaceOnUse">
<stop stop-color="#1F92FD"/>
<stop offset="0.82408" stop-color="#FB535A"/>
</linearGradient>
</defs>
</svg>
