<svg width="34" height="34" viewBox="0 0 34 34" fill="none" xmlns="http://www.w3.org/2000/svg">
<path d="M17.1054 9.61108C12.9888 9.61108 9.71655 12.8833 9.71655 17C9.71655 21.1166 12.9888 24.3889 17.1054 24.3889C21.2221 24.3889 24.4943 21.1166 24.4943 17C24.4943 12.8833 21.2221 9.61108 17.1054 9.61108ZM17.1054 22.2778C14.1499 22.2778 11.8277 19.9555 11.8277 17C11.8277 14.0444 14.1499 11.7222 17.1054 11.7222C20.061 11.7222 22.3832 14.0444 22.3832 17C22.3832 19.9555 20.061 22.2778 17.1054 22.2778Z" fill="#6D6D6D"/>
<path d="M32.6222 13.5166L29.6666 12.5666L29.0333 10.9833L30.5111 8.23886C30.8278 7.60553 30.7222 6.76108 30.1944 6.23331L27.6611 3.69997C27.1333 3.1722 26.2889 3.06664 25.6555 3.38331L22.9111 4.86108L21.3278 4.22775L20.3778 1.2722C20.1666 0.638862 19.5333 0.111084 18.7944 0.111084H15.2055C14.4666 0.111084 13.8333 0.638862 13.7278 1.37775L12.7778 4.33331C12.1444 4.43886 11.6166 4.64997 11.0889 4.96664L8.34442 3.48886C7.71108 3.17219 6.86664 3.27775 6.33886 3.80553L3.80553 6.33886C3.27775 6.86664 3.17219 7.71108 3.48886 8.34442L4.86108 10.9833C4.64997 11.5111 4.43886 12.1444 4.22775 12.6722L1.2722 13.6222C0.638862 13.8333 0.111084 14.4666 0.111084 15.2055V18.7944C0.111084 19.5333 0.638862 20.1666 1.37775 20.3778L4.33331 21.3278L4.96664 22.9111L3.48886 25.6555C3.17219 26.2889 3.27775 27.1333 3.80553 27.6611L6.33886 30.1944C6.86664 30.7222 7.71108 30.8278 8.34442 30.5111L11.0889 29.0333L12.6722 29.6666L13.6222 32.7278C13.8333 33.3611 14.4666 33.8889 15.2055 33.8889H18.7944C19.5333 33.8889 20.1666 33.3611 20.3778 32.7278L21.3278 29.6666L22.9111 29.0333L25.6555 30.5111C26.2889 30.8278 27.1333 30.7222 27.6611 30.1944L30.1944 27.6611C30.7222 27.1333 30.8278 26.2889 30.5111 25.6555L29.0333 22.9111L29.6666 21.3278L32.7278 20.3778C33.3611 20.1666 33.8889 19.5333 33.8889 18.7944V15.2055C33.8889 14.4666 33.3611 13.7278 32.6222 13.5166ZM31.7778 18.4778L27.9778 19.6389L27.8722 20.1666L26.9222 22.3833L26.6055 22.9111L28.5055 26.3944L26.3944 28.5055L22.9111 26.6055L22.3833 26.9222C21.6444 27.3444 20.9055 27.6611 20.1666 27.8722L19.6389 27.9778L18.4778 31.7778H15.5222L14.3611 27.9778L13.8333 27.8722L11.6166 26.9222L11.0889 26.6055L7.60553 28.5055L5.49442 26.3944L7.39442 22.9111L7.07775 22.3833C6.65553 21.6444 6.33886 20.9055 6.12775 20.1666L6.0222 19.6389L2.2222 18.4778V15.5222L5.81108 14.4666L6.0222 13.9389C6.23331 13.0944 6.54997 12.3555 6.9722 11.6166L7.28886 11.0889L5.49442 7.60553L7.60553 5.49442L10.9833 7.39442L11.5111 7.07775C12.25 6.65553 12.9889 6.33886 13.8333 6.12775L14.3611 5.91664L15.5222 2.2222H18.4778L19.6389 5.91664L20.1666 6.12775C20.9055 6.33886 21.6444 6.65553 22.3833 7.07775L22.9111 7.39442L26.3944 5.49442L28.5055 7.60553L26.6055 11.0889L26.9222 11.6166C27.3444 12.3555 27.6611 13.0944 27.8722 13.8333L27.9778 14.3611L31.7778 15.5222V18.4778Z" fill="#6D6D6D"/>
</svg>
