<svg width="24" height="24" viewBox="0 0 24 24" fill="none" xmlns="http://www.w3.org/2000/svg">
<path d="M22.7626 0.814354C22.6015 0.652941 22.4102 0.524882 22.1996 0.437507C21.9889 0.350132 21.7631 0.305157 21.5351 0.305157C21.307 0.305157 21.0812 0.350132 20.8706 0.437507C20.66 0.524882 20.4686 0.652941 20.3076 0.814354L11.7932 9.31131L3.27883 0.796942C3.11763 0.635741 2.92625 0.507868 2.71563 0.420627C2.50501 0.333385 2.27927 0.288483 2.0513 0.288483C1.82333 0.288483 1.59758 0.333385 1.38696 0.420627C1.17634 0.507868 0.984969 0.635741 0.823767 0.796942C0.662565 0.958144 0.534693 1.14952 0.447452 1.36014C0.36021 1.57076 0.315308 1.7965 0.315308 2.02447C0.315308 2.25245 0.36021 2.47819 0.447452 2.68881C0.534693 2.89943 0.662565 3.0908 0.823767 3.252L9.33813 11.7664L0.823767 20.2807C0.662565 20.4419 0.534693 20.6333 0.447452 20.8439C0.36021 21.0545 0.315308 21.2803 0.315308 21.5083C0.315308 21.7362 0.36021 21.962 0.447452 22.1726C0.534693 22.3832 0.662565 22.5746 0.823767 22.7358C0.984969 22.897 1.17634 23.0249 1.38696 23.1121C1.59758 23.1993 1.82333 23.2443 2.0513 23.2443C2.27927 23.2443 2.50501 23.1993 2.71563 23.1121C2.92625 23.0249 3.11763 22.897 3.27883 22.7358L11.7932 14.2214L20.3076 22.7358C20.4688 22.897 20.6601 23.0249 20.8708 23.1121C21.0814 23.1993 21.3071 23.2443 21.5351 23.2443C21.7631 23.2443 21.9888 23.1993 22.1994 23.1121C22.41 23.0249 22.6014 22.897 22.7626 22.7358C22.9238 22.5746 23.0517 22.3832 23.1389 22.1726C23.2262 21.962 23.2711 21.7362 23.2711 21.5083C23.2711 21.2803 23.2262 21.0545 23.1389 20.8439C23.0517 20.6333 22.9238 20.4419 22.7626 20.2807L14.2483 11.7664L22.7626 3.252C23.4243 2.59036 23.4243 1.476 22.7626 0.814354Z" fill="white"/>
</svg>
